<?xml version='1.0' encoding='UTF-8' standalone='no'?>
<!-- Created with Fritzing (http://www.fritzing.org/) -->
<svg xmlns:svg='http://www.w3.org/2000/svg' xmlns='http://www.w3.org/2000/svg' version='1.2' baseProfile='tiny' x='0in' y='0in' width='3.143in' height='2.39733in' viewBox='0 0 226.296 172.608' >
<g partID='63310'><g transform='translate(226.296,17.6282)' ><g transform='matrix(0,1,-1,0,0,0)'  ><g id="schematic">
<rect y="14.85" class="interior rect" stroke="#000000" stroke-linecap="round" stroke-width="0.9" x="14.85" height="135.9" width="78.3" fill="#FFFFFF"/>
<line y2="28.8" id="connector61pin" y1="28.8" class="pin" stroke="#787878" stroke-linecap="round" x1="93.2499" x2="107.65" stroke-width="0.699999" fill="none"/>
<text font-family="'Droid Sans'" y="29.4999" class="text" stroke="none" text-anchor="end" stroke-width="0" font-size="3.49999" x="91.8499" fill="#8c8c8c">D0/RX</text>
<g id="connector61terminal" y="28.4499" class="terminal" stroke="none" stroke-width="0" x="107.65" height="0.699999" width="0.699999" fill="none"/>
<line y2="36" id="connector62pin" y1="36" class="pin" stroke="#787878" stroke-linecap="round" x1="93.2499" x2="107.65" stroke-width="0.699999" fill="none"/>
<text font-family="'Droid Sans'" y="36.6999" class="text" stroke="none" text-anchor="end" stroke-width="0" font-size="3.49999" x="91.8499" fill="#8c8c8c">D1/TX</text>
<g id="connector62terminal" y="35.6499" class="terminal" stroke="none" stroke-width="0" x="107.65" height="0.699999" width="0.699999" fill="none"/>
<line y2="43.2" id="connector63pin" y1="43.2" class="pin" stroke="#787878" stroke-linecap="round" x1="93.2499" x2="107.65" stroke-width="0.699999" fill="none"/>
<text font-family="'Droid Sans'" y="43.8999" class="text" stroke="none" text-anchor="end" stroke-width="0" font-size="3.49999" x="91.8499" fill="#8c8c8c">D2</text>
<g id="connector63terminal" y="42.8499" class="terminal" stroke="none" stroke-width="0" x="107.65" height="0.699999" width="0.699999" fill="none"/>
<line y2="50.4" id="connector64pin" y1="50.4" class="pin" stroke="#787878" stroke-linecap="round" x1="93.2499" x2="107.65" stroke-width="0.699999" fill="none"/>
<text font-family="'Droid Sans'" y="51.0999" class="text" stroke="none" text-anchor="end" stroke-width="0" font-size="3.49999" x="91.8499" fill="#8c8c8c">D3 PWM</text>
<g id="connector64terminal" y="50.0499" class="terminal" stroke="none" stroke-width="0" x="107.65" height="0.699999" width="0.699999" fill="none"/>
<line y2="57.6" id="connector65pin" y1="57.6" class="pin" stroke="#787878" stroke-linecap="round" x1="93.2499" x2="107.65" stroke-width="0.699999" fill="none"/>
<text font-family="'Droid Sans'" y="58.2999" class="text" stroke="none" text-anchor="end" stroke-width="0" font-size="3.49999" x="91.8499" fill="#8c8c8c">D4</text>
<g id="connector65terminal" y="57.2499" class="terminal" stroke="none" stroke-width="0" x="107.65" height="0.699999" width="0.699999" fill="none"/>
<line y2="64.8" id="connector66pin" y1="64.8" class="pin" stroke="#787878" stroke-linecap="round" x1="93.2499" x2="107.65" stroke-width="0.699999" fill="none"/>
<text font-family="'Droid Sans'" y="65.4999" class="text" stroke="none" text-anchor="end" stroke-width="0" font-size="3.49999" x="91.8499" fill="#8c8c8c">D5 PWM</text>
<g id="connector66terminal" y="64.4499" class="terminal" stroke="none" stroke-width="0" x="107.65" height="0.699999" width="0.699999" fill="none"/>
<line y2="72" id="connector67pin" y1="72" class="pin" stroke="#787878" stroke-linecap="round" x1="93.2499" x2="107.65" stroke-width="0.699999" fill="none"/>
<text font-family="'Droid Sans'" y="72.6999" class="text" stroke="none" text-anchor="end" stroke-width="0" font-size="3.49999" x="91.8499" fill="#8c8c8c">D6 PWM</text>
<g id="connector67terminal" y="71.6499" class="terminal" stroke="none" stroke-width="0" x="107.65" height="0.699999" width="0.699999" fill="none"/>
<line y2="79.2" id="connector68pin" y1="79.2" class="pin" stroke="#787878" stroke-linecap="round" x1="93.2499" x2="107.65" stroke-width="0.699999" fill="none"/>
<text font-family="'Droid Sans'" y="79.8999" class="text" stroke="none" text-anchor="end" stroke-width="0" font-size="3.49999" x="91.8499" fill="#8c8c8c">D7</text>
<g id="connector68terminal" y="78.8499" class="terminal" stroke="none" stroke-width="0" x="107.65" height="0.699999" width="0.699999" fill="none"/>
<line y2="86.4" id="connector51pin" y1="86.4" class="pin" stroke="#787878" stroke-linecap="round" x1="93.2499" x2="107.65" stroke-width="0.699999" fill="none"/>
<text font-family="'Droid Sans'" y="87.0999" class="text" stroke="none" text-anchor="end" stroke-width="0" font-size="3.49999" x="91.8499" fill="#8c8c8c">D8</text>
<g id="connector51terminal" y="86.0499" class="terminal" stroke="none" stroke-width="0" x="107.65" height="0.699999" width="0.699999" fill="none"/>
<line y2="93.6" id="connector52pin" y1="93.6" class="pin" stroke="#787878" stroke-linecap="round" x1="93.2499" x2="107.65" stroke-width="0.699999" fill="none"/>
<text font-family="'Droid Sans'" y="94.2999" class="text" stroke="none" text-anchor="end" stroke-width="0" font-size="3.49999" x="91.8499" fill="#8c8c8c">D9 PWM</text>
<g id="connector52terminal" y="93.2499" class="terminal" stroke="none" stroke-width="0" x="107.65" height="0.699999" width="0.699999" fill="none"/>
<line y2="100.8" id="connector53pin" y1="100.8" class="pin" stroke="#787878" stroke-linecap="round" x1="93.2499" x2="107.65" stroke-width="0.699999" fill="none"/>
<text font-family="'Droid Sans'" y="101.5" class="text" stroke="none" text-anchor="end" stroke-width="0" font-size="3.49999" x="91.8499" fill="#8c8c8c">D10 PWM/SS</text>
<g id="connector53terminal" y="100.45" class="terminal" stroke="none" stroke-width="0" x="107.65" height="0.699999" width="0.699999" fill="none"/>
<line y2="108" id="connector54pin" y1="108" class="pin" stroke="#787878" stroke-linecap="round" x1="93.2499" x2="107.65" stroke-width="0.699999" fill="none"/>
<text font-family="'Droid Sans'" y="108.7" class="text" stroke="none" text-anchor="end" stroke-width="0" font-size="3.49999" x="91.8499" fill="#8c8c8c">D11 PWM/MOSI</text>
<g id="connector54terminal" y="107.65" class="terminal" stroke="none" stroke-width="0" x="107.65" height="0.699999" width="0.699999" fill="none"/>
<line y2="115.2" id="connector55pin" y1="115.2" class="pin" stroke="#787878" stroke-linecap="round" x1="93.2499" x2="107.65" stroke-width="0.699999" fill="none"/>
<text font-family="'Droid Sans'" y="115.9" class="text" stroke="none" text-anchor="end" stroke-width="0" font-size="3.49999" x="91.8499" fill="#8c8c8c">D12/MISO</text>
<g id="connector55terminal" y="114.85" class="terminal" stroke="none" stroke-width="0" x="107.65" height="0.699999" width="0.699999" fill="none"/>
<line y2="122.4" id="connector41pin" y1="122.4" class="pin" stroke="none" stroke-linecap="round" x1="93.2499" x2="107.65" stroke-width="0" fill="none"/>
<rect id="connector41terminal" y="122.05" class="terminal" stroke="none" stroke-width="0" x="107.65" height="0.699999" width="0.699999" fill="none"/>
<line y2="122.4" id="connector56pin" y1="122.4" class="pin" stroke="#787878" stroke-linecap="round" x1="93.2499" x2="107.65" stroke-width="0.699999" fill="none"/>
<text font-family="'Droid Sans'" y="123.1" class="text" stroke="none" text-anchor="end" stroke-width="0" font-size="3.49999" x="91.8499" fill="#8c8c8c">D13/SCK</text>
<g id="connector56terminal" y="122.05" class="terminal" stroke="none" stroke-width="0" x="107.65" height="0.699999" width="0.699999" fill="none"/>
<line y2="28.8" id="connector43pin" y1="28.8" class="pin" stroke="none" stroke-linecap="round" x1="0.349999" x2="14.75" stroke-width="0" fill="none"/>
<rect id="connector43terminal" y="28.4499" class="terminal" stroke="none" stroke-width="0" x="-0.349999" height="0.699999" width="0.699999" fill="none"/>
<line y2="28.8" id="connector85pin" y1="28.8" class="pin" stroke="#787878" stroke-linecap="round" x1="0.349999" x2="14.75" stroke-width="0.699999" fill="none"/>
<text font-family="'Droid Sans'" y="29.4999" class="text" stroke="none" text-anchor="start" stroke-width="0" font-size="3.49999" x="16.15" fill="#8c8c8c">RESET</text>
<g id="connector85terminal" y="28.4499" class="terminal" stroke="none" stroke-width="0" x="-0.349999" height="0.699999" width="0.699999" fill="none"/>
<line y2="36" id="connector49pin" y1="36" class="pin" stroke="#787878" stroke-linecap="round" x1="0.349999" x2="14.75" stroke-width="0.699999" fill="none"/>
<text font-family="'Droid Sans'" y="36.6999" class="text" stroke="none" text-anchor="start" stroke-width="0" font-size="3.49999" x="16.15" fill="#8c8c8c">RESET2</text>
<rect id="connector49terminal" y="35.6499" class="terminal" stroke="none" stroke-width="0" x="-0.349999" height="0.699999" width="0.699999" fill="none"/>
<line y2="43.2" id="connector58pin" y1="43.2" class="pin" stroke="#787878" stroke-linecap="round" x1="0.349999" x2="14.75" stroke-width="0.699999" fill="none"/>
<text font-family="'Droid Sans'" y="43.8999" class="text" stroke="none" text-anchor="start" stroke-width="0" font-size="3.49999" x="16.15" fill="#8c8c8c">AREF</text>
<g id="connector58terminal" y="42.8499" class="terminal" stroke="none" stroke-width="0" x="-0.349999" height="0.699999" width="0.699999" fill="none"/>
<line y2="50.4" id="connector84pin" y1="50.4" class="pin" stroke="#787878" stroke-linecap="round" x1="0.349999" x2="14.75" stroke-width="0.699999" fill="none"/>
<text font-family="'Droid Sans'" y="51.0999" class="text" stroke="none" text-anchor="start" stroke-width="0" font-size="3.49999" x="16.15" fill="#8c8c8c">ioref</text>
<g id="connector84terminal" y="50.0499" class="terminal" stroke="none" stroke-width="0" x="-0.349999" height="0.699999" width="0.699999" fill="none"/>
<line y2="64.8" id="connector0pin" y1="64.8" class="pin" stroke="#787878" stroke-linecap="round" x1="0.349999" x2="14.75" stroke-width="0.699999" fill="none"/>
<text font-family="'Droid Sans'" y="65.4999" class="text" stroke="none" text-anchor="start" stroke-width="0" font-size="3.49999" x="16.15" fill="#8c8c8c">A0</text>
<g id="connector0terminal" y="64.4499" class="terminal" stroke="none" stroke-width="0" x="-0.349999" height="0.699999" width="0.699999" fill="none"/>
<line y2="72" id="connector1pin" y1="72" class="pin" stroke="#787878" stroke-linecap="round" x1="0.349999" x2="14.75" stroke-width="0.699999" fill="none"/>
<text font-family="'Droid Sans'" y="72.6999" class="text" stroke="none" text-anchor="start" stroke-width="0" font-size="3.49999" x="16.15" fill="#8c8c8c">A1</text>
<g id="connector1terminal" y="71.6499" class="terminal" stroke="none" stroke-width="0" x="-0.349999" height="0.699999" width="0.699999" fill="none"/>
<line y2="79.2" id="connector2pin" y1="79.2" class="pin" stroke="#787878" stroke-linecap="round" x1="0.349999" x2="14.75" stroke-width="0.699999" fill="none"/>
<text font-family="'Droid Sans'" y="79.8999" class="text" stroke="none" text-anchor="start" stroke-width="0" font-size="3.49999" x="16.15" fill="#8c8c8c">A2</text>
<g id="connector2terminal" y="78.8499" class="terminal" stroke="none" stroke-width="0" x="-0.349999" height="0.699999" width="0.699999" fill="none"/>
<line y2="86.4" id="connector3pin" y1="86.4" class="pin" stroke="#787878" stroke-linecap="round" x1="0.349999" x2="14.75" stroke-width="0.699999" fill="none"/>
<text font-family="'Droid Sans'" y="87.0999" class="text" stroke="none" text-anchor="start" stroke-width="0" font-size="3.49999" x="16.15" fill="#8c8c8c">A3</text>
<g id="connector3terminal" y="86.0499" class="terminal" stroke="none" stroke-width="0" x="-0.349999" height="0.699999" width="0.699999" fill="none"/>
<line y2="93.6" id="connector48pin" y1="93.6" class="pin" stroke="none" stroke-linecap="round" x1="0.349999" x2="14.75" stroke-width="0" fill="none"/>
<rect id="connector48terminal" y="93.2499" class="terminal" stroke="none" stroke-width="0" x="-0.349999" height="0.699999" width="0.699999" fill="none"/>
<line y2="93.6" id="connector45pin" y1="93.6" class="pin" stroke="none" stroke-linecap="round" x1="0.349999" x2="14.75" stroke-width="0" fill="none"/>
<rect id="connector45terminal" y="93.2499" class="terminal" stroke="none" stroke-width="0" x="-0.349999" height="0.699999" width="0.699999" fill="none"/>
<line y2="93.6" id="connector4pin" y1="93.6" class="pin" stroke="none" stroke-linecap="round" x1="0.349999" x2="14.75" stroke-width="0" fill="none"/>
<g id="connector4terminal" y="93.2499" class="terminal" stroke="none" stroke-width="0" x="-0.349999" height="0.699999" width="0.699999" fill="none"/>
<line y2="93.6" id="connector39pin" y1="93.6" class="pin" stroke="none" stroke-linecap="round" x1="0.349999" x2="14.75" stroke-width="0" fill="none"/>
<rect id="connector39terminal" y="93.2499" class="terminal" stroke="none" stroke-width="0" x="-0.349999" height="0.699999" width="0.699999" fill="none"/>
<line y2="93.6" id="connector47pin" y1="93.6" class="pin" stroke="none" stroke-linecap="round" x1="0.349999" x2="14.75" stroke-width="0" fill="none"/>
<rect id="connector47terminal" y="93.2499" class="terminal" stroke="none" stroke-width="0" x="-0.349999" height="0.699999" width="0.699999" fill="none"/>
<line y2="93.6" id="connector42pin" y1="93.6" class="pin" stroke="none" stroke-linecap="round" x1="0.349999" x2="14.75" stroke-width="0" fill="none"/>
<rect id="connector42terminal" y="93.2499" class="terminal" stroke="none" stroke-width="0" x="-0.349999" height="0.699999" width="0.699999" fill="none"/>
<line y2="93.6" id="connector59pin" y1="93.6" class="pin" stroke="#787878" stroke-linecap="round" x1="0.349999" x2="14.75" stroke-width="0.699999" fill="none"/>
<text font-family="'Droid Sans'" y="94.2999" class="text" stroke="none" text-anchor="start" stroke-width="0" font-size="3.49999" x="16.15" fill="#8c8c8c">A4/SDA</text>
<g id="connector59terminal" y="93.2499" class="terminal" stroke="none" stroke-width="0" x="-0.349999" height="0.699999" width="0.699999" fill="none"/>
<line y2="100.8" id="connector5pin" y1="100.8" class="pin" stroke="none" stroke-linecap="round" x1="0.349999" x2="14.75" stroke-width="0" fill="none"/>
<g id="connector5terminal" y="100.45" class="terminal" stroke="none" stroke-width="0" x="-0.349999" height="0.699999" width="0.699999" fill="none"/>
<line y2="100.8" id="connector60pin" y1="100.8" class="pin" stroke="#787878" stroke-linecap="round" x1="0.349999" x2="14.75" stroke-width="0.699999" fill="none"/>
<text font-family="'Droid Sans'" y="101.5" class="text" stroke="none" text-anchor="start" stroke-width="0" font-size="3.49999" x="16.15" fill="#8c8c8c">A5/SCL</text>
<g id="connector60terminal" y="100.45" class="terminal" stroke="none" stroke-width="0" x="-0.349999" height="0.699999" width="0.699999" fill="none"/>
<line y2="136.8" id="connector91pin" y1="136.8" class="pin" stroke="#787878" stroke-linecap="round" x1="0.349999" x2="14.75" stroke-width="0.699999" fill="none"/>
<text font-family="'Droid Sans'" y="137.5" class="text" stroke="none" text-anchor="start" stroke-width="0" font-size="3.49999" x="16.15" fill="#8c8c8c">N/C</text>
<g id="connector91terminal" y="136.45" class="terminal" stroke="none" stroke-width="0" x="-0.349999" height="0.699999" width="0.699999" fill="none"/>
<line y2="165.25" id="connector88pin" y1="150.85" class="pin" stroke="none" stroke-linecap="round" x1="57.6" x2="57.6" stroke-width="0" fill="none"/>
<g id="connector88terminal" y="165.25" class="terminal" stroke="none" stroke-width="0" x="57.2499" height="0.699999" width="0.699999" fill="none"/>
<line y2="165.25" id="connector57pin" y1="150.85" class="pin" stroke="none" stroke-linecap="round" x1="57.6" x2="57.6" stroke-width="0" fill="none"/>
<g id="connector57terminal" y="165.25" class="terminal" stroke="none" stroke-width="0" x="57.2499" height="0.699999" width="0.699999" fill="none"/>
<line y2="165.25" id="connector44pin" y1="150.85" class="pin" stroke="none" stroke-linecap="round" x1="57.6" x2="57.6" stroke-width="0" fill="none"/>
<rect id="connector44terminal" y="165.25" class="terminal" stroke="none" stroke-width="0" x="57.2499" height="0.699999" width="0.699999" fill="none"/>
<line y2="165.25" id="connector50pin" y1="150.85" class="pin" stroke="none" stroke-linecap="round" x1="57.6" x2="57.6" stroke-width="0" fill="none"/>
<rect id="connector50terminal" y="165.25" class="terminal" stroke="none" stroke-width="0" x="57.2499" height="0.699999" width="0.699999" fill="none"/>
<line y2="165.25" id="connector89pin" y1="150.85" class="pin" stroke="#787878" stroke-linecap="round" x1="57.6" x2="57.6" stroke-width="0.699999" fill="none"/>
<g transform="matrix(1, 0, 0, 1, 58.2999, 149.45)">
<g>
<g transform="rotate(270)">
<g>
<text font-family="'Droid Sans'" y="0" class="text" stroke="none" text-anchor="start" stroke-width="0" font-size="3.49999" x="0" fill="#8c8c8c">GND</text>
</g>
</g>
</g>
</g>
<g id="connector89terminal" y="165.25" class="terminal" stroke="none" stroke-width="0" x="57.2499" height="0.699999" width="0.699999" fill="none"/>
<line y2="14.75" id="connector86pin" y1="0.349999" class="pin" stroke="#787878" stroke-linecap="round" x1="36" x2="36" stroke-width="0.699999" fill="none"/>
<g transform="matrix(1, 0, 0, 1, 36.6999, 16.15)">
<g>
<g transform="rotate(270)">
<g>
<text font-family="'Droid Sans'" y="0" class="text" stroke="none" text-anchor="end" stroke-width="0" font-size="3.49999" x="0" fill="#8c8c8c">3V3</text>
</g>
</g>
</g>
</g>
<g id="connector86terminal" y="-0.349999" class="terminal" stroke="none" stroke-width="0" x="35.6499" height="0.699999" width="0.699999" fill="none"/>
<line y2="14.75" id="connector40pin" y1="0.349999" class="pin" stroke="none" stroke-linecap="round" x1="50.4" x2="50.4" stroke-width="0" fill="none"/>
<rect id="connector40terminal" y="-0.349999" class="terminal" stroke="none" stroke-width="0" x="50.0499" height="0.699999" width="0.699999" fill="none"/>
<line y2="14.75" id="connector46pin" y1="0.349999" class="pin" stroke="none" stroke-linecap="round" x1="50.4" x2="50.4" stroke-width="0" fill="none"/>
<rect id="connector46terminal" y="-0.349999" class="terminal" stroke="none" stroke-width="0" x="50.0499" height="0.699999" width="0.699999" fill="none"/>
<line y2="14.75" id="connector87pin" y1="0.349999" class="pin" stroke="#787878" stroke-linecap="round" x1="50.4" x2="50.4" stroke-width="0.699999" fill="none"/>
<g transform="matrix(1, 0, 0, 1, 51.0999, 16.15)">
<g>
<g transform="rotate(270)">
<g>
<text font-family="'Droid Sans'" y="0" class="text" stroke="none" text-anchor="end" stroke-width="0" font-size="3.49999" x="0" fill="#8c8c8c">5V</text>
</g>
</g>
</g>
</g>
<g id="connector87terminal" y="-0.349999" class="terminal" stroke="none" stroke-width="0" x="50.0499" height="0.699999" width="0.699999" fill="none"/>
<line y2="14.75" id="connector90pin" y1="0.349999" class="pin" stroke="#787878" stroke-linecap="round" x1="64.8" x2="64.8" stroke-width="0.699999" fill="none"/>
<g transform="matrix(1, 0, 0, 1, 65.4999, 16.15)">
<g>
<g transform="rotate(270)">
<g>
<text font-family="'Droid Sans'" y="0" class="text" stroke="none" text-anchor="end" stroke-width="0" font-size="3.49999" x="0" fill="#8c8c8c">VIN</text>
</g>
</g>
</g>
</g>
<g id="connector90terminal" y="-0.349999" class="terminal" stroke="none" stroke-width="0" x="64.4499" height="0.699999" width="0.699999" fill="none"/>
<text id="label" font-family="'Droid Sans'" y="76.4498" class="text" stroke="none" text-anchor="middle" stroke-width="0" font-size="4.25001" x="54.4501" fill="#000000">Arduino</text>
<text id="label" font-family="'Droid Sans'" y="80.9833" class="text" stroke="none" text-anchor="middle" stroke-width="0" font-size="4.25001" x="54.4501" fill="#000000">Uno</text>
<text id="label" font-family="'Droid Sans'" y="85.5167" class="text" stroke="none" text-anchor="middle" stroke-width="0" font-size="4.25001" x="54.4501" fill="#000000">(Rev3)</text>
</g>
</g></g></g><g partID='66530'><g transform='translate(82.5119,158.928)' ><g transform='matrix(0,1,-1,0,0,0)'  ><g id="schematic">
<g>
<path d="M13.5,14.966L9.9,14.966c-0.193,0,-0.35,-0.156,-0.35,-0.35s0.156,-0.35,0.35,-0.35L13.5,14.266c0.193,0,0.35,0.156,0.35,0.35S13.694,14.966,13.5,14.966z"/>
</g>
<g>
<path d="M9.9,14.966L6.3,14.966c-0.193,0,-0.35,-0.156,-0.35,-0.35s0.157,-0.35,0.35,-0.35l3.6,0c0.193,0,0.35,0.156,0.35,0.35S10.093,14.966,9.9,14.966z"/>
</g>
<g>
<polygon points="9.9,14.616,6.3,7.416,9.9,7.416,13.5,7.416" fill="#FFFFFF"/>
<path d="M9.9,15.398L5.734,7.066l8.333,0L9.9,15.398zM6.866,7.766L9.9,13.834l3.034,-6.068L6.866,7.766z"/>
</g>
<g>
<path d="M9.9,14.841c-0.124,0,-0.225,-0.101,-0.225,-0.225l0,-7.2c0,-0.124,0.101,-0.225,0.225,-0.225s0.225,0.101,0.225,0.225l0,7.2C10.124,14.74,10.024,14.841,9.9,14.841z"/>
</g>
<g>
<path d="M1.8,12.141c-0.058,0,-0.115,-0.021,-0.159,-0.065c-0.088,-0.088,-0.088,-0.23,0,-0.318l2.34,-2.341c0.088,-0.088,0.23,-0.088,0.318,0s0.088,0.23,0,0.318l-2.34,2.341C1.915,12.12,1.858,12.141,1.8,12.141z"/>
</g>
<g>
<path d="M2.16,15.381c-0.058,0,-0.115,-0.021,-0.159,-0.065c-0.088,-0.088,-0.088,-0.23,0,-0.318l2.34,-2.34c0.088,-0.088,0.23,-0.088,0.318,0s0.088,0.23,0,0.318l-2.34,2.34C2.276,15.359,2.218,15.381,2.16,15.381z"/>
</g>
<g id="connector0pin">
<path d="M9.9,22.166c-0.193,0,-0.35,-0.156,-0.35,-0.35l0,-7.2c0,-0.193,0.156,-0.35,0.35,-0.35s0.35,0.156,0.35,0.35l0,7.2C10.249,22.01,10.093,22.166,9.9,22.166z" fill="#787878"/>
</g>
<g id="connector0terminal">
<rect y="21.816" x="9.9" height="0.001" width="0.001" fill="none"/>
</g>
<g transform="matrix(1, 0, 0, 1, 3.429, 6.4262)">
<g>
<g transform="rotate(270)">
<g>
<g enable-background="new    ">
<path d="M-11.647,5.54l-0.891,0L-12.538,5.388l0.342,-0.372c0.049,-0.053,0.093,-0.101,0.131,-0.145s0.071,-0.086,0.099,-0.128c0.026,-0.042,0.047,-0.084,0.062,-0.125c0.015,-0.043,0.021,-0.088,0.021,-0.138c0,-0.038,-0.005,-0.072,-0.017,-0.102s-0.027,-0.054,-0.047,-0.075c-0.021,-0.02,-0.045,-0.035,-0.073,-0.046s-0.06,-0.016,-0.094,-0.016c-0.062,0,-0.118,0.013,-0.167,0.038c-0.051,0.024,-0.098,0.057,-0.143,0.096l-0.1,-0.116c0.025,-0.023,0.055,-0.046,0.084,-0.065c0.029,-0.021,0.063,-0.039,0.097,-0.054s0.071,-0.026,0.109,-0.036c0.038,-0.008,0.079,-0.013,0.121,-0.013c0.063,0,0.119,0.009,0.169,0.026c0.051,0.018,0.094,0.043,0.129,0.076c0.035,0.032,0.063,0.072,0.082,0.119c0.019,0.048,0.028,0.101,0.028,0.16c0,0.056,-0.009,0.108,-0.026,0.158c-0.017,0.05,-0.041,0.1,-0.07,0.148c-0.031,0.048,-0.066,0.097,-0.109,0.146c-0.041,0.049,-0.087,0.1,-0.136,0.152L-12.32,5.37l0,0.008l0.673,0L-11.647,5.54z" fill="#787878"/>
</g>
</g>
</g>
</g>
</g>
<g id="connector1pin">
<path d="M9.9,7.766c-0.193,0,-0.35,-0.157,-0.35,-0.35l0,-7.2c0,-0.193,0.156,-0.35,0.35,-0.35s0.35,0.157,0.35,0.35l0,7.2C10.249,7.609,10.093,7.766,9.9,7.766z" fill="#787878"/>
</g>
<g id="connector1terminal">
<polygon points="9.9,0.216,9.901,0.216,9.901,0.216" fill="none"/>
</g>
<g transform="matrix(1, 0, 0, 1, 3.429, 1.3462)">
<g>
<g transform="rotate(270)">
<g>
<g enable-background="new    ">
<path d="M-2.616,5.54l-0.172,0L-2.788,4.648c0,-0.028,0,-0.058,0,-0.09s0.001,-0.063,0.002,-0.095c0.001,-0.032,0.002,-0.063,0.003,-0.092c0.001,-0.028,0.002,-0.054,0.002,-0.076c-0.011,0.012,-0.021,0.021,-0.029,0.03s-0.017,0.017,-0.026,0.024s-0.018,0.016,-0.028,0.025c-0.01,0.008,-0.021,0.019,-0.035,0.03l-0.145,0.118l-0.094,-0.12l0.374,-0.292l0.146,0L-2.618,5.54z" fill="#787878"/>
</g>
</g>
</g>
</g>
</g>
<g>
<path d="M0.18,13.536l1.08,-2.521l1.44,1.438L0.18,13.536z"/>
</g>
<g>
<path d="M0.54,16.776l1.08,-2.521l1.438,1.438L0.54,16.776z"/>
</g>
</g>
</g></g></g><g partID='66560'><g transform='translate(6.192,104.378)' ><g transform='matrix(0,-1,-1,0,0,0)'  ><g id="schematic" xmlns="http://www.w3.org/2000/svg">
<line y2="0.216" y1="3.096" class="other" stroke="#000000" stroke-linecap="round" x1="7.55002" x2="8.63003" xmlns="http://www.w3.org/2000/svg" stroke-width="0.432002"/>
<line y2="5.976" y1="0.216" class="other" stroke="#000000" stroke-linecap="round" x1="8.63003" x2="10.43" xmlns="http://www.w3.org/2000/svg" stroke-width="0.432002"/>
<line y2="0.216" y1="5.976" class="other" stroke="#000000" stroke-linecap="round" x1="10.43" x2="12.23" xmlns="http://www.w3.org/2000/svg" stroke-width="0.432002"/>
<line y2="5.976" y1="0.216" class="other" stroke="#000000" stroke-linecap="round" x1="12.23" x2="14.03" xmlns="http://www.w3.org/2000/svg" stroke-width="0.432002"/>
<line y2="0.216" y1="5.976" class="other" stroke="#000000" stroke-linecap="round" x1="14.03" x2="15.8301" xmlns="http://www.w3.org/2000/svg" stroke-width="0.432002"/>
<line y2="5.976" y1="0.216" class="other" stroke="#000000" stroke-linecap="round" x1="15.8301" x2="17.6301" xmlns="http://www.w3.org/2000/svg" stroke-width="0.432002"/>
<line y2="0.216" y1="5.976" class="other" stroke="#000000" stroke-linecap="round" x1="17.6301" x2="19.4301" xmlns="http://www.w3.org/2000/svg" stroke-width="0.432002"/>
<line y2="5.976" y1="0.216" class="other" stroke="#000000" stroke-linecap="round" x1="19.4301" x2="21.2301" xmlns="http://www.w3.org/2000/svg" stroke-width="0.432002"/>
<line y2="3.096" y1="5.976" class="other" stroke="#000000" stroke-linecap="round" x1="21.2301" x2="21.9501" xmlns="http://www.w3.org/2000/svg" stroke-width="0.432002"/>
<line id="connector1pin" y2="3.096" y1="3.096" class="pin" stroke="#787878" stroke-linecap="round" x1="29.1502" x2="21.9501" xmlns="http://www.w3.org/2000/svg" stroke-width="0.700001" connectorname="2"/>
<g id="connector1terminal" y="3.096" class="terminal" stroke="none" xmlns="http://www.w3.org/2000/svg" stroke-width="0" x="29.1502" height="0.000283465" width="0.000283466" fill="none"/>
<text font-family="'Droid Sans'" y="2.046" class="text" stroke="none" text-anchor="middle" xmlns="http://www.w3.org/2000/svg" stroke-width="0" font-size="2.50001" x="25.5501" fill="#8c8c8c">2</text>
<line id="connector0pin" y2="3.096" y1="3.096" class="pin" stroke="#787878" stroke-linecap="round" x1="0.350001" x2="7.55002" xmlns="http://www.w3.org/2000/svg" stroke-width="0.700001" connectorname="1"/>
<g id="connector0terminal" y="3.096" class="terminal" stroke="none" xmlns="http://www.w3.org/2000/svg" stroke-width="0" x="0.350001" height="0.000283465" width="0.000283466" fill="none"/>
<text font-family="'Droid Sans'" y="2.046" class="text" stroke="none" text-anchor="middle" xmlns="http://www.w3.org/2000/svg" stroke-width="0" font-size="2.50001" x="3.95001" fill="#8c8c8c">1</text>
</g>
</g></g></g><g partID='67780'><line stroke-linecap='round' stroke='#000000' x1='3.09586' y1='75.2282' x2='60.6959' y2='75.2282' stroke-width='0.4' /></g><g partID='68000'><line stroke-linecap='round' stroke='#404040' x1='161.55' y1='168.737' x2='82.2959' y2='168.828' stroke-width='0.699998' /></g><g partID='68010'><line stroke-linecap='round' stroke='#404040' x1='161.496' y1='125.628' x2='161.55' y2='168.737' stroke-width='0.699998' /></g><g partID='68080'><line stroke-linecap='round' stroke='#404040' x1='3.16658' y1='168.737' x2='3.09586' y2='104.028' stroke-width='0.699998' /></g><g partID='68090'><line stroke-linecap='round' stroke='#404040' x1='60.6954' y1='168.828' x2='3.16658' y2='168.737' stroke-width='0.699998' /></g><g partID='63310' id='partLabel'><g transform='translate(115.334,0)' ><g font-size='5' font-style='normal' font-weight='normal' fill='#000000' font-family="'DroidSans'" id='schematicLabel' fill-opacity='1' stroke='none' ><text x='0' y='3.75'>Arduino PWM</text></g></g></g><g partID='66530' id='partLabel'><g transform='translate(58.7256,141.991)' ><g font-size='5' font-style='normal' font-weight='normal' fill='#000000' font-family="'DroidSans'" id='schematicLabel' fill-opacity='1' stroke='none' ><text x='0' y='3.75'>LED1</text><text x='0' y='8.75'>Red (633nm)</text></g></g></g><g partID='66560' id='partLabel'><g transform='translate(8.67055,84.6794)' ><g font-size='5' font-style='normal' font-weight='normal' fill='#000000' font-family="'DroidSans'" id='schematicLabel' fill-opacity='1' stroke='none' ><text x='0' y='3.75'>R1</text><text x='0' y='8.75'>220&#x3a9;</text></g></g></g></svg>